<?xml version="1.0" standalone="no"?>
<!DOCTYPE svg PUBLIC "-//W3C//DTD SVG 1.1//EN" "http://www.w3.org/Graphics/SVG/1.1/DTD/svg11.dtd">

<svg width="717" height="483" version="1.1" xmlns="http://www.w3.org/2000/svg">
	<ellipse stroke="black" stroke-width="1" fill="none" cx="666.5" cy="368.5" rx="49" ry="49"/>
	<text x="622.5" y="374.5" font-family="Times New Roman" font-size="20">GameOver</text>
	<ellipse stroke="black" stroke-width="1" fill="none" cx="666.5" cy="368.5" rx="43" ry="43"/>
	<ellipse stroke="black" stroke-width="1" fill="none" cx="98.5" cy="248.5" rx="49" ry="49"/>
	<text x="55.5" y="254.5" font-family="Times New Roman" font-size="20">GameStart</text>
	<ellipse stroke="black" stroke-width="1" fill="none" cx="401.5" cy="248.5" rx="49" ry="49"/>
	<text x="358.5" y="254.5" font-family="Times New Roman" font-size="20">SongStarts</text>
	<ellipse stroke="black" stroke-width="1" fill="none" cx="666.5" cy="116.5" rx="49" ry="49"/>
	<text x="625.5" y="122.5" font-family="Times New Roman" font-size="20">GameWin</text>
	<ellipse stroke="black" stroke-width="1" fill="none" cx="666.5" cy="116.5" rx="43" ry="43"/>
	<polygon stroke="black" stroke-width="1" points="147.5,248.5 352.5,248.5"/>
	<polygon fill="black" stroke-width="1" points="352.5,248.5 344.5,243.5 344.5,253.5"/>
	<text x="212.5" y="269.5" font-family="Times New Roman" font-size="20">Press "L"</text>
	<path stroke="black" stroke-width="1" fill="none" d="M 643.404,411.456 A 146.175,146.175 0 0 1 384.452,294.194"/>
	<polygon fill="black" stroke-width="1" points="643.404,411.456 634.547,414.702 642.441,420.84"/>
	<text x="270.5" y="476.5" font-family="Times New Roman" font-size="20">Player Health drops to 0</text>
	<path stroke="black" stroke-width="1" fill="none" d="M 379.664,204.878 A 150.072,150.072 0 0 1 644.836,72.792"/>
	<polygon fill="black" stroke-width="1" points="644.836,72.792 644.225,63.378 636.106,69.216"/>
	<text x="45.5" y="16.5" font-family="Times New Roman" font-size="20">Song finishes without Player Health going below 0</text>
	<path stroke="black" stroke-width="1" fill="none" d="M 76.899,204.731 A 36.75,36.75 0 1 1 120.101,204.731"/>
	<text x="1.5" y="129.5" font-family="Times New Roman" font-size="20">Player can move around</text>
	<polygon fill="black" stroke-width="1" points="120.101,204.731 128.848,201.198 120.758,195.32"/>
	<path stroke="black" stroke-width="1" fill="none" d="M 445.269,226.899 A 36.75,36.75 0 1 1 445.269,270.101"/>
	<text x="516.5" y="254.5" font-family="Times New Roman" font-size="20">Press "L"</text>
	<polygon fill="black" stroke-width="1" points="445.269,270.101 448.802,278.848 454.68,270.758"/>
	<path stroke="black" stroke-width="1" fill="none" d="M 617.669,371.613 A 264.854,264.854 0 0 1 431.373,287.253"/>
	<polygon fill="black" stroke-width="1" points="431.373,287.253 433.16,296.516 440.482,289.705"/>
	<text x="436.5" y="369.5" font-family="Times New Roman" font-size="20">Press "L"</text>
	<path stroke="black" stroke-width="1" fill="none" d="M 432.694,210.778 A 310.722,310.722 0 0 1 617.599,118.674"/>
	<polygon fill="black" stroke-width="1" points="432.694,210.778 441.852,208.513 434.672,201.553"/>
	<text x="436.5" y="139.5" font-family="Times New Roman" font-size="20">Press "L"</text>
</svg>
